<svg width="0" height="0" class="hidden">
  <symbol version="1.1" id="book-icon" xmlns="http://www.w3.org/2000/svg" xmlns:xlink="http://www.w3.org/1999/xlink" x="0px" y="0px" xml:space="preserve" viewBox="0 0 489.4 489.4">
    <g>
      <g>
        <path d="M453.7,20.4c0-11.2-9.2-20.4-20.4-20.4H114.2C70.4,0,35.7,34.7,35.7,77.5c0,0,0,349.5,0,349.7c0,34.7,28.5,62.2,63.2,62.2
			h333.4c8.2,0,16.3-5.1,19.4-13.3c3.1-8.2,1-17.3-6.1-22.4c-18.1-11.5-19.2-36.7-3.1-47.9c3.4-3.4,11.1-10.4,10.5-20.4
			C453.5,383.8,453.7,20.4,453.7,20.4z M76.5,427.2c0-12.2,10.2-21.4,22.4-21.4h293.7c-9,15-7.1,32.6,0,42.8H98.9
			C86.7,448.6,76.5,439.5,76.5,427.2z M413,365H99c-7.9,0-15.4,1.5-22.4,4.2V77.5c0-20.4,17.3-36.7,37.7-36.7h298.8V365H413z"></path>
      </g>
    </g>
    <g></g>
    <g></g>
    <g></g>
    <g></g>
    <g></g>
    <g></g>
    <g></g>
    <g></g>
    <g></g>
    <g></g>
    <g></g>
    <g></g>
    <g></g>
    <g></g>
    <g></g>
  </symbol>
  <symbol fill="none" xmlns="http://www.w3.org/2000/svg" viewBox="0 0 218 218" id="edit-icon">
    <path d="M215.658 53.55L164.305 2.196C162.899 0.79 160.991 0 159.002 0C157.013 0 155.105 0.79 153.699 2.196L3.80899 152.086C2.45899 153.438 1.67399 155.252 1.61599 157.161L0.00499352 210.127C-0.0580065 212.194 0.735994 214.196 2.19799 215.659C3.60699 217.067 5.51499 217.855 7.50099 217.855C7.57699 217.855 7.65299 217.854 7.72999 217.851L60.694 216.238C62.603 216.18 64.418 215.396 65.769 214.046L215.659 64.157C218.587 61.228 218.587 56.479 215.658 53.55ZM57.264 201.336L15.24 202.616L16.519 160.59L107.643 69.465L148.393 110.208L57.264 201.336ZM159 99.602L118.249 58.86L159.001 18.107L199.747 58.854L159 99.602Z" fill="white"></path>
  </symbol>
  <symbol version="1.1" id="game-icon" xmlns="http://www.w3.org/2000/svg" xmlns:xlink="http://www.w3.org/1999/xlink" x="0px" y="0px" enable-background="new 0 0 512 512" xml:space="preserve" viewBox="0 0 512 512">
    <g>
      <path d="M182.4,251.5c-28.9,0-52.5,23.5-52.5,52.5s23.5,52.5,52.5,52.5c28.9,0,52.5-23.5,52.5-52.5S211.3,251.5,182.4,251.5z
		 M182.4,331.9c-15.4,0-28-12.5-28-28s12.5-28,28-28c15.4,0,28,12.5,28,28S197.8,331.9,182.4,331.9z"></path>
      <path d="M382.1,303.9c0-28.9-23.5-52.5-52.5-52.5c-28.9,0-52.5,23.5-52.5,52.5s23.5,52.5,52.5,52.5
		C358.6,356.4,382.1,332.8,382.1,303.9z M329.6,331.9c-15.4,0-28-12.5-28-28s12.5-28,28-28c15.4,0,28,12.5,28,28
		S345.1,331.9,329.6,331.9z"></path>
      <path d="M467.8,173.6c-8.4-50-49.7-87-100.6-90.1l-2.1-0.4c-0.7-0.1-1.4-0.2-2.1-0.2H151.5c-53.3,0-98.4,38.1-107.2,90.4L12,346.4
		c-1,4.7-1.5,9.4-1.5,14.1c0,37.8,30.7,68.5,68.5,68.5c22.8,0,44.1-11.3,56.6-29.9l15.6-21.6c4-5.5,2.7-13.1-2.8-17.1
		c-5.5-4-13.1-2.7-17.1,2.8l-15.8,21.9c-8.2,12.2-21.9,19.5-36.5,19.5c-24.3,0-44-19.8-44-44c0-3,0.3-6.1,1-9.4l32.3-173.5
		c6.8-40.7,41.8-70.2,83.1-70.2H362l1.7,0.3c0.5,0.1,0.9,0.1,1.4,0.2c39,2.1,72,31.5,78.5,69.9L476,351.4c0.6,3,0.9,6.1,0.9,9.1
		c0,24.3-19.8,44-44,44c-14.7,0-28.3-7.3-36.8-19.8l-16.8-23.2c-4-5.5-11.6-6.7-17.1-2.8c-5.5,4-6.7,11.6-2.8,17.1l16.5,22.9
		c12.8,18.9,34,30.2,56.8,30.2c37.8,0,68.5-30.7,68.5-68.5c0-4.7-0.5-9.5-1.4-13.9L467.8,173.6z"></path>
      <circle cx="319.5" cy="181.8" r="16.6"></circle>
      <circle cx="387.4" cy="181.8" r="16.6"></circle>
      <path d="M159.7,132.6c-6.8,0-12.3,5.5-12.3,12.3V167h-22.1c-6.8,0-12.3,5.5-12.3,12.3s5.5,12.3,12.3,12.3h22.1v22.1
		c0,6.8,5.5,12.3,12.3,12.3s12.3-5.5,12.3-12.3v-22.1h22.1c6.8,0,12.3-5.5,12.3-12.3s-5.5-12.3-12.3-12.3H172v-22.1
		C172,138.1,166.5,132.6,159.7,132.6z"></path>
      <circle cx="353.4" cy="215.7" r="16.6"></circle>
      <circle cx="353.4" cy="147.8" r="16.6"></circle>
    </g>
  </symbol>
  <symbol xmlns="http://www.w3.org/2000/svg" viewBox="0 0 24 24" id="movie-icon">
    <g>
      <path fill="none" d="M0 0h24v24H0z"></path>
      <path d="M2 3.993A1 1 0 0 1 2.992 3h18.016c.548 0 .992.445.992.993v16.014a1 1 0 0 1-.992.993H2.992A.993.993 0 0 1 2 20.007V3.993zM4 5v14h16V5H4zm6.622 3.415l4.879 3.252a.4.4 0 0 1 0 .666l-4.88 3.252a.4.4 0 0 1-.621-.332V8.747a.4.4 0 0 1 .622-.332z"></path>
    </g>
  </symbol>
</svg>